<svg width="38" height="38" viewBox="0 0 38 38" fill="none" xmlns="http://www.w3.org/2000/svg">
<g clip-path="url(#clip0_107_753)">
<path d="M6.72917 0H31.2708C34.9917 0 38 3.00833 38 6.72917V30.3208C38 34.0417 34.9917 37.05 31.2708 37.05H6.72917C3.00833 37.05 0 34.0417 0 30.3208V6.72917C0 3.00833 3.00833 0 6.72917 0Z" fill="#00005B"/>
<path d="M15.2633 22.1667H9.37327L8.16994 25.9034C8.13827 26.0459 8.01161 26.1409 7.86911 26.1251H4.89244C4.71827 26.1251 4.67077 26.0301 4.71827 25.8401L9.81661 11.2259C9.86411 11.0676 9.91161 10.9251 9.97494 10.7351C10.0383 10.4026 10.0699 10.0542 10.0699 9.7059C10.0541 9.62674 10.1174 9.54757 10.1966 9.53174H10.2441H14.2974C14.4083 9.53174 14.4874 9.57924 14.5033 9.6584L20.2824 25.8084C20.3299 25.9826 20.2824 26.0617 20.1241 26.0617H16.8149C16.7041 26.0776 16.5933 25.9984 16.5616 25.8876L15.2633 22.0876V22.1667ZM10.2916 19.0159H14.3133C14.2183 18.6834 14.0916 18.2876 13.9491 17.8759C13.8066 17.4484 13.6641 16.9892 13.5216 16.5142C13.3633 16.0234 13.2208 15.5484 13.0624 15.0576C12.9041 14.5667 12.7616 14.1076 12.6349 13.6484C12.5083 13.2051 12.3974 12.7934 12.2866 12.4134H12.2549C12.1124 13.0942 11.9383 13.7751 11.7166 14.4559C11.4791 15.2159 11.2416 16.0076 10.9883 16.7992C10.7824 17.6067 10.5291 18.3509 10.2916 19.0159V19.0159Z" fill="#9999FF"/>
<path d="M29.6082 20.7417H24.5891C24.6524 21.2325 24.8107 21.7233 25.0799 22.1508C25.3649 22.5783 25.7607 22.9108 26.2357 23.1008C26.8691 23.37 27.5657 23.5125 28.2624 23.4967C28.8166 23.4808 29.3707 23.4333 29.9091 23.3225C30.3999 23.2592 30.8749 23.1325 31.3182 22.9583C31.3974 22.895 31.4449 22.9267 31.4449 23.085V25.5075C31.4449 25.5708 31.4291 25.6342 31.4132 25.6975C31.3816 25.745 31.3499 25.7767 31.3024 25.8083C30.7957 26.03 30.2732 26.1883 29.7191 26.2833C28.9749 26.4258 28.2307 26.4892 27.4707 26.4733C26.2674 26.4733 25.2541 26.2833 24.4307 25.9192C23.6549 25.5867 22.9741 25.0642 22.4357 24.415C21.9291 23.7975 21.5649 23.1008 21.3432 22.3408C21.1216 21.5967 21.0107 20.8208 21.0107 20.0292C21.0107 19.1742 21.1374 18.335 21.4066 17.5117C21.6599 16.72 22.0557 15.9917 22.5941 15.3425C23.1166 14.7092 23.7657 14.2025 24.5099 13.8383C25.2541 13.4742 26.1407 13.3475 27.1541 13.3475C27.9932 13.3317 28.8324 13.49 29.6082 13.8383C30.2574 14.1233 30.8274 14.5508 31.2707 15.105C31.6824 15.6433 32.0149 16.245 32.2207 16.91C32.4266 17.5433 32.5216 18.1925 32.5216 18.8417C32.5216 19.2217 32.5057 19.5542 32.4899 19.855C32.4582 20.1558 32.4424 20.3775 32.4266 20.52C32.4107 20.6308 32.3157 20.7258 32.2049 20.7258C32.1099 20.7258 31.9357 20.7417 31.6824 20.7575C31.4291 20.7892 31.1282 20.805 30.7641 20.805C30.3999 20.805 30.0199 20.7417 29.6082 20.7417V20.7417ZM24.5891 18.43H27.9299C28.3416 18.43 28.6424 18.43 28.8324 18.4142C28.9591 18.3983 29.0857 18.3667 29.1966 18.2875V18.1292C29.1966 17.9233 29.1649 17.7333 29.1016 17.5433C28.8166 16.6567 27.9774 16.055 27.0432 16.0867C26.1724 16.0392 25.3491 16.4983 24.9374 17.29C24.7474 17.6542 24.6366 18.0342 24.5891 18.43Z" fill="#9999FF"/>
</g>
<defs>
<clipPath id="clip0_107_753">
<rect width="38" height="37.05" fill="white"/>
</clipPath>
</defs>
</svg>
