<svg width="48" height="48" viewBox="0 0 48 48" fill="none" xmlns="http://www.w3.org/2000/svg">
<path d="M46.9887 42.1419C47.6326 42.7858 47.9943 43.659 47.9943 44.5696C47.9943 45.4802 47.6326 46.3534 46.9887 46.9973C46.3448 47.6411 45.4716 48.0029 44.561 48.0029C43.6505 48.0029 42.7772 47.6411 42.1333 46.9973L24 28.8582L5.86094 46.9916C5.21708 47.6354 4.34382 47.9971 3.43326 47.9971C2.5227 47.9971 1.64944 47.6354 1.00558 46.9916C0.361718 46.3477 9.59427e-09 45.4744 0 44.5639C-9.59428e-09 43.6533 0.361718 42.7801 1.00558 42.1362L19.1446 24.0029L1.01129 5.8638C0.367429 5.21993 0.00571231 4.34667 0.00571232 3.43612C0.00571233 2.52556 0.367429 1.6523 1.01129 1.00843C1.65515 0.364573 2.52841 0.00285563 3.43897 0.00285562C4.34953 0.00285561 5.22279 0.364573 5.86665 1.00843L24 19.1475L42.1391 1.00558C42.7829 0.361717 43.6562 -1.51699e-08 44.5667 0C45.4773 1.51699e-08 46.3506 0.361717 46.9944 1.00558C47.6383 1.64944 48 2.5227 48 3.43326C48 4.34382 47.6383 5.21708 46.9944 5.86094L28.8554 24.0029L46.9887 42.1419Z" fill="white"/>
</svg>
