<svg width="45" height="45" viewBox="0 0 45 45" fill="none" xmlns="http://www.w3.org/2000/svg">
<path d="M0 10.2832C0 4.60395 4.60395 0 10.2832 0H34.7168C40.3961 0 45 4.60395 45 10.2832V34.7168C45 40.3961 40.3961 45 34.7168 45H10.2832C4.60395 45 0 40.3961 0 34.7168V10.2832Z" fill="#1E1E1E"/>
<path d="M11.9531 33.0469C11.9531 30.1344 14.3141 27.7734 17.2266 27.7734H22.5V33.0469C22.5 35.9593 20.139 38.3203 17.2266 38.3203V38.3203C14.3141 38.3203 11.9531 35.9593 11.9531 33.0469V33.0469Z" fill="#24CB71"/>
<path d="M22.5 6.67969V17.2266H27.7734C30.6859 17.2266 33.0469 14.8656 33.0469 11.9531V11.9531C33.0469 9.04069 30.6859 6.67969 27.7734 6.67969H22.5Z" fill="#FF7237"/>
<circle cx="27.7295" cy="22.5" r="5.27344" fill="#00B6FF"/>
<path d="M11.9531 11.9531C11.9531 14.8656 14.3141 17.2266 17.2266 17.2266H22.5V6.67969L17.2266 6.67969C14.3141 6.67969 11.9531 9.04069 11.9531 11.9531V11.9531Z" fill="#FF3737"/>
<path d="M11.9531 22.5C11.9531 25.4124 14.3141 27.7734 17.2266 27.7734H22.5V17.2266H17.2266C14.3141 17.2266 11.9531 19.5876 11.9531 22.5V22.5Z" fill="#874FFF"/>
</svg>
