<svg width="40" height="40" viewBox="0 0 40 40" fill="none" xmlns="http://www.w3.org/2000/svg">
<path d="M0 9.14062C0 4.0924 4.0924 0 9.14062 0H30.8594C35.9076 0 40 4.0924 40 9.14062V30.8594C40 35.9076 35.9076 40 30.8594 40H9.14062C4.0924 40 0 35.9076 0 30.8594V9.14062Z" fill="#1E1E1E"/>
<path d="M10.625 29.375C10.625 26.7862 12.7237 24.6875 15.3125 24.6875H20V29.375C20 31.9638 17.9013 34.0625 15.3125 34.0625V34.0625C12.7237 34.0625 10.625 31.9638 10.625 29.375V29.375Z" fill="#24CB71"/>
<path d="M20 5.9375V15.3125H24.6875C27.2763 15.3125 29.375 13.2138 29.375 10.625V10.625C29.375 8.03617 27.2763 5.9375 24.6875 5.9375H20Z" fill="#FF7237"/>
<circle cx="24.6484" cy="20" r="4.6875" fill="#00B6FF"/>
<path d="M10.625 10.625C10.625 13.2138 12.7237 15.3125 15.3125 15.3125L20 15.3125V5.9375L15.3125 5.9375C12.7237 5.9375 10.625 8.03616 10.625 10.625V10.625Z" fill="#FF3737"/>
<path d="M10.625 20C10.625 22.5888 12.7237 24.6875 15.3125 24.6875H20V15.3125L15.3125 15.3125C12.7237 15.3125 10.625 17.4112 10.625 20V20Z" fill="#874FFF"/>
</svg>
