<svg width="218" height="106" viewBox="0 0 218 106" fill="none" xmlns="http://www.w3.org/2000/svg">
<path fill-rule="evenodd" clip-rule="evenodd" d="M67.6141 0.5C67.8903 0.5 68.1141 0.723858 68.1141 1V8.73527L73.3059 11.7206C73.7713 11.9882 74.0582 12.4841 74.0582 13.0209V16.9206L75.7309 17.966C76.1695 18.2401 76.4359 18.7208 76.4359 19.238V24.2804L77.3251 24.798C77.7866 25.0667 78.0705 25.5604 78.0705 26.0944V34.287V46.3238V58.0634V69.6544V79.0566C78.0705 79.885 77.3989 80.5566 76.5705 80.5566H72.1264V84.2174C72.1264 84.4936 71.9025 84.7174 71.6264 84.7174C71.3503 84.7174 71.1264 84.4936 71.1264 84.2174V80.5566H64.9935V86.4465C64.9935 86.7226 64.7696 86.9465 64.4935 86.9465C64.2173 86.9465 63.9935 86.7226 63.9935 86.4465V80.5566H58.455V90.8504H65.8309C66.1071 90.8504 66.3309 91.0742 66.3309 91.3504C66.3309 91.6265 66.1071 91.8504 65.8309 91.8504H58.455V104.138L76.9211 104.079C77.0133 103.988 77.0705 103.862 77.0705 103.723V99.1182C75.2718 99.0178 74.0607 98.3721 73.2977 97.462C72.4802 96.4867 72.2373 95.279 72.2483 94.3154C72.2513 94.0526 72.1052 93.7551 71.8476 93.4606C71.3514 92.8932 71.2301 92.1774 71.2683 91.5293C71.3065 90.8805 71.5061 90.2437 71.7215 89.7534C71.7897 89.5979 71.8032 89.4304 71.7632 89.2816C71.3269 87.6621 71.5385 86.5029 72.2217 85.7551C72.8823 85.032 73.8654 84.8294 74.6736 84.8303C74.9721 84.8306 75.2552 84.6692 75.4103 84.4084C75.8135 83.7303 76.4941 83.0647 77.8052 82.7154C77.8916 82.6923 77.9835 82.6774 78.0744 82.6723C78.8276 82.6301 79.4596 82.7833 79.973 83.0978C80.4841 83.4109 80.8425 83.862 81.0875 84.3595C81.5694 85.3385 81.6391 86.5488 81.565 87.4865C81.5477 87.7055 81.6422 87.9411 81.8302 88.1179C82.8388 89.067 83.1477 90.2472 83.1944 91.295C83.2302 92.1 83.1091 92.8787 83.0259 93.4135C83.0034 93.5584 82.9836 93.6853 82.9705 93.79C82.9425 94.0146 82.8355 94.2337 82.7218 94.4208C82.6019 94.6178 82.4438 94.828 82.2642 95.0424C81.9044 95.4719 81.4275 95.9545 80.9148 96.4365C79.9667 97.3278 78.8641 98.2468 78.0705 98.8748V103.723C78.0705 103.844 78.0561 103.962 78.0288 104.075L120.165 103.941V99.8207V80.2052V79.0705H84.1632V81.8398C84.1632 82.1159 83.9394 82.3398 83.6632 82.3398C83.3871 82.3398 83.1632 82.1159 83.1632 81.8398V78.5705V74.9639C83.1632 74.1354 83.8348 73.4639 84.6632 73.4639H121.319L138.723 67.0824C139.058 66.9599 139.424 66.9602 139.758 67.0832L157.077 73.4639H194.412C195.241 73.4639 195.912 74.1354 195.912 74.9639V99.539C195.912 99.6311 195.938 99.7214 195.986 99.8L198.367 103.691L217.404 103.63C217.68 103.629 217.905 103.852 217.906 104.129C217.906 104.405 217.683 104.629 217.407 104.63L198.089 104.692L158.561 104.818L120.667 104.939L77.2135 105.078C77.0178 105.171 76.7987 105.223 76.5674 105.223L49.5234 105.167H49.5207L41.0902 105.193L31.3567 105.225L30.8561 105.226L30.8551 104.726L30.8551 104.725L30.8313 92.742H26.8026V104.725C26.8026 105.001 26.5788 105.225 26.3026 105.225C26.0265 105.225 25.8026 105.001 25.8026 104.725V92.242V81.8398V72.6264V62.0757V51.5249V40.2311V33.246C25.8026 32.6971 26.1025 32.192 26.5843 31.9291L27.4373 31.4639V16.4547V12.8874C27.4373 12.3385 27.7371 11.8334 28.219 11.5706L35.3877 7.66038C35.839 7.41419 36.385 7.41631 36.8344 7.66598L43.8634 11.571C44.3396 11.8355 44.6349 12.3374 44.6349 12.8822V16.4547V31.3154L45.7767 31.9289C46.2633 32.1903 46.5668 32.6979 46.5668 33.2502V40.2311V51.5249V62.0757V72.6264V80.8398C46.5668 81.6682 45.8952 82.3398 45.0668 82.3398H41.5886V104.192L49.0218 104.168V101.326C47.7735 100.815 46.9231 99.9875 46.4049 98.9524C45.8489 97.8418 45.6929 96.5286 45.7778 95.1758C45.947 92.4764 47.0852 89.4657 48.234 87.1774C48.7748 86.1003 50.2694 86.1471 50.7818 87.2086C52.9253 91.6485 53.2926 94.9334 52.7956 97.2617C52.3392 99.3999 51.1567 100.704 50.0218 101.298V104.165L57.455 104.141V91.3504V80.0566V69.6544V58.0634V46.3238V34.287V25.5194V25.2363L57.6977 25.0907L58.6438 24.523V19.2431C58.6438 18.7217 58.9146 18.2377 59.3589 17.9649L61.7644 16.4878V12.9902C61.7644 12.4783 62.0255 12.0017 62.4569 11.7261L67.1141 8.75065V1C67.1141 0.723858 67.338 0.5 67.6141 0.5ZM67.6278 9.60915L62.9952 12.5688C62.8515 12.6607 62.7644 12.8195 62.7644 12.9902V15.8738L66.8246 13.3807C67.3097 13.0828 67.9217 13.0852 68.4045 13.387L73.0582 16.2956V13.0209C73.0582 12.842 72.9626 12.6767 72.8075 12.5875L67.6278 9.60915ZM59.6438 23.923L66.8501 19.5993C67.319 19.3179 67.9039 19.314 68.3764 19.5891L75.4359 23.6983V19.238C75.4359 19.0656 75.3471 18.9053 75.2009 18.814L73.2932 17.6217L67.8745 14.235C67.7136 14.1344 67.5096 14.1336 67.3478 14.2329L62.5261 17.1936L59.8822 18.8171C59.734 18.908 59.6438 19.0693 59.6438 19.2431V23.923ZM50.0218 100.117C50.7503 99.5686 51.4898 98.589 51.8177 97.053C52.253 95.0136 51.9659 91.9614 49.8813 87.6433C49.718 87.3051 49.2844 87.314 49.1277 87.626C48.0038 89.8648 46.9328 92.7346 46.7758 95.2384C46.6975 96.4871 46.8492 97.6062 47.2991 98.5047C47.6531 99.2119 48.2029 99.8057 49.0218 100.227V97.2945C49.0218 97.0183 49.2456 96.7945 49.5218 96.7945C49.7979 96.7945 50.0218 97.0183 50.0218 97.2945V100.117ZM40.5886 104.195V82.3398H31.8106L31.8293 91.742H34.3272C34.6033 91.742 34.8272 91.9658 34.8272 92.242C34.8272 92.5181 34.6033 92.742 34.3272 92.742H31.8551V104.223L40.5886 104.195ZM30.8293 91.742L30.8106 82.3398H26.8026V91.742H30.8293ZM26.8026 81.3398H30.8086L30.7923 73.1264H26.8026V81.3398ZM26.8026 72.1264H30.7903L30.7713 62.5757H26.8026V72.1264ZM26.8026 61.5757H30.7693L30.7503 52.0249H26.8026V61.5757ZM26.8026 51.0249H30.7484L30.7279 40.7311H26.8026V51.0249ZM26.8026 39.7311H30.7259L30.7082 30.8189L28.1767 32.1997L27.0632 32.807C26.9026 32.8946 26.8026 33.063 26.8026 33.246V39.7311ZM31.7071 30.274L31.7259 39.7311H40.5886V30.2765L36.3506 27.9993C36.2019 27.9194 36.0228 27.92 35.8745 28.0008L31.7071 30.274ZM41.5886 30.8138V39.7311H45.5668V33.2502C45.5668 33.0661 45.4656 32.8969 45.3034 32.8098L43.8983 32.0548L41.5886 30.8138ZM45.5668 40.7311H41.5886V51.0249H45.5668V40.7311ZM45.5668 52.0249H41.5886V61.5757H45.5668V52.0249ZM45.5668 62.5757H41.5886V72.1264H45.5668V62.5757ZM45.5668 73.1264H41.5886V81.3398H45.0668C45.3429 81.3398 45.5668 81.1159 45.5668 80.8398V73.1264ZM40.5886 81.3398V73.1264H31.7923L31.8086 81.3398H40.5886ZM31.7903 72.1264H40.5886V62.5757H31.7713L31.7903 72.1264ZM31.7693 61.5757H40.5886V52.0249H31.7503L31.7693 61.5757ZM31.7484 51.0249H40.5886V40.7311H31.7279L31.7484 51.0249ZM41.5886 29.6786V21.4804C41.5886 20.9523 41.3109 20.4631 40.8575 20.1925L36.8843 17.8204C36.4067 17.5353 35.8106 17.5378 35.3355 17.827L31.4471 20.1934C30.9998 20.4656 30.7269 20.9513 30.7269 21.4748V29.6696L28.4373 30.9185V16.7612L35.8794 12.9725C36.0231 12.8993 36.1932 12.9 36.3364 12.9742L43.6349 16.7586V30.7781L41.5886 29.6786ZM43.6349 15.6322V12.8822C43.6349 12.7006 43.5365 12.5333 43.3778 12.4451L36.3488 8.54014C36.199 8.45691 36.017 8.45621 35.8665 8.53827L28.6978 12.4485C28.5372 12.5361 28.4373 12.7045 28.4373 12.8874V15.6391L35.4257 12.0813C35.8568 11.8619 36.3672 11.8638 36.7967 12.0864L43.6349 15.6322ZM31.7269 29.1241L35.3957 27.1229C35.8405 26.8803 36.3777 26.8787 36.8239 27.1185L40.5886 29.1412V21.4804C40.5886 21.3044 40.496 21.1413 40.3449 21.0511L36.3717 18.679C36.2125 18.584 36.0138 18.5848 35.8554 18.6812L31.967 21.0477C31.8179 21.1384 31.7269 21.3003 31.7269 21.4748V29.1241ZM197.197 103.695L195.133 100.322C194.989 100.086 194.912 99.8153 194.912 99.539V79.1487H159.059V80.2052V99.8207V103.817L197.197 103.695ZM159.059 78.1487H194.912V74.9639C194.912 74.6877 194.688 74.4639 194.412 74.4639H159.397C159.834 74.978 159.669 75.8296 159.059 76.1343V78.1487ZM158.059 103.82V100.321H154.695H151.426H147.86H144.887H141.47H138.349H134.634H131.513H127.204H124.083H121.165V103.938L158.059 103.82ZM121.165 99.3207H123.583V80.7052H121.165V99.3207ZM121.165 79.7052H124.083H127.204H131.513H134.634H138.349H141.47H144.887H147.86H151.426H154.695H158.059V76.2471H121.165V78.5705V79.7052ZM120.165 76.1467C119.522 75.8656 119.284 75.0532 119.603 74.4639H84.6632C84.3871 74.4639 84.1632 74.6877 84.1632 74.9639V78.0705H120.165V76.1467ZM121.593 74.4287L120.586 74.8603C120.522 74.8878 120.495 74.9228 120.481 74.9522C120.464 74.9869 120.457 75.0344 120.468 75.0861C120.478 75.1377 120.504 75.1786 120.532 75.2041C120.557 75.2256 120.595 75.2471 120.665 75.2471H158.559C158.582 75.2471 158.594 75.2433 158.6 75.2411C158.606 75.2387 158.611 75.2359 158.615 75.2323C158.623 75.2242 158.636 75.2064 158.641 75.1786C158.646 75.1508 158.64 75.1298 158.635 75.1192C158.632 75.1144 158.629 75.1103 158.624 75.106C158.619 75.1018 158.609 75.0939 158.588 75.0861L156.815 74.433L139.413 68.0216C139.301 67.9806 139.179 67.9805 139.068 68.0213L121.593 74.4287ZM158.059 80.7052H155.195V99.3207H158.059V80.7052ZM154.195 99.3207V80.7052H151.926V99.3207H154.195ZM150.926 99.3207V80.7052H148.36V99.3207H150.926ZM147.36 99.3207V80.7052H145.387V99.3207H147.36ZM144.387 99.3207V80.7052H141.97V99.3207H144.387ZM140.97 99.3207V80.7052H138.849V99.3207H140.97ZM137.849 99.3207V80.7052H135.134V99.3207H137.849ZM134.134 99.3207V80.7052H132.013V99.3207H134.134ZM131.013 99.3207V80.7052H127.704V99.3207H131.013ZM126.704 99.3207V80.7052H124.583V99.3207H126.704ZM78.0705 97.5906C78.7484 97.0351 79.5341 96.362 80.2298 95.7079C80.7301 95.2376 81.1745 94.7859 81.4977 94.4002C81.6595 94.2071 81.7833 94.0395 81.8674 93.9012C81.9092 93.8325 81.9377 93.7765 81.956 93.7329C81.965 93.7115 81.9707 93.6949 81.9742 93.683C81.9777 93.6709 81.9783 93.6655 81.9783 93.666C81.9963 93.5216 82.0204 93.3656 82.0461 93.1992L82.0461 93.1991C82.1281 92.6682 82.2262 92.0325 82.1954 91.3394C82.156 90.4539 81.9029 89.5594 81.1449 88.8462C80.7647 88.4885 80.524 87.9663 80.5681 87.4077C80.6358 86.5512 80.5584 85.5489 80.1903 84.8012C80.0102 84.4354 79.7678 84.1448 79.4507 83.9506C79.1359 83.7577 78.7121 83.6381 78.1303 83.6707C78.1091 83.6719 78.0846 83.6758 78.0626 83.6816C77.0135 83.9612 76.5446 84.4574 76.2698 84.9195C75.9368 85.4796 75.329 85.8311 74.6725 85.8303C73.9888 85.8295 73.3461 86.0069 72.9599 86.4296C72.5964 86.8275 72.3404 87.5798 72.7287 89.0215C72.8321 89.4052 72.7905 89.806 72.6371 90.1555C72.453 90.5745 72.2958 91.0925 72.2665 91.5881C72.2373 92.0843 72.338 92.5023 72.6004 92.8023C72.9254 93.1739 73.2554 93.7046 73.2483 94.3268C73.239 95.1346 73.446 96.0823 74.0641 96.8196C74.6113 97.4723 75.5304 98.0194 77.0705 98.1166V93.7786L74.5327 91.0998C74.3428 90.8994 74.3513 90.5829 74.5518 90.393C74.7523 90.2031 75.0687 90.2116 75.2586 90.4121L77.0705 92.3246V88.3783C77.0705 88.1022 77.2944 87.8783 77.5705 87.8783C77.8467 87.8783 78.0705 88.1022 78.0705 88.3783V93.5794V97.5906ZM58.455 79.5566H63.9935V70.1544H58.455V79.5566ZM58.455 69.1544H63.9935V58.5634H58.455V69.1544ZM58.455 57.5634H63.9935V46.8238H58.455V57.5634ZM58.455 45.8238H63.9935V34.787H58.455V45.8238ZM58.455 33.787H63.9935V29.7915C63.9935 29.2721 64.2623 28.7896 64.7039 28.5161L66.8848 27.1661C67.3204 26.8965 67.8635 26.8678 68.325 27.09L71.2771 28.5114C71.7963 28.7614 72.1264 29.2867 72.1264 29.8629V33.787H77.0705V26.0944C77.0705 25.9164 76.9759 25.7518 76.822 25.6623L75.6843 25L67.8734 20.4534C67.7159 20.3617 67.5209 20.363 67.3646 20.4567L59.401 25.2349L58.455 25.8025V33.787ZM77.0705 34.787H72.1264V45.8238H77.0705V34.787ZM77.0705 46.8238H72.1264V57.5634H77.0705V46.8238ZM77.0705 58.5634H72.1264V69.1544H77.0705V58.5634ZM77.0705 70.1544H72.1264V79.5566H76.5705C76.8467 79.5566 77.0705 79.3327 77.0705 79.0566V70.1544ZM71.1264 79.5566V70.1544H64.9935V79.5566H71.1264ZM64.9935 69.1544H71.1264V58.5634H64.9935V69.1544ZM64.9935 57.5634H71.1264V46.8238H64.9935V57.5634ZM64.9935 45.8238H71.1264V34.787H64.9935V45.8238ZM64.9935 33.787H71.1264V29.8629C71.1264 29.6708 71.0164 29.4957 70.8433 29.4124L67.8912 27.991C67.7374 27.9169 67.5563 27.9265 67.4111 28.0164L65.2303 29.3664C65.0831 29.4576 64.9935 29.6184 64.9935 29.7915V33.787ZM202.248 24.5736C202.524 24.5736 202.748 24.7975 202.748 25.0736V34.9119L205.628 40.671L207.945 42.8517H208.638C208.914 42.8517 209.138 43.0756 209.138 43.3517C209.138 43.6279 208.914 43.8517 208.638 43.8517H207.746H207.355V53.4025H208.084C208.912 53.4025 209.584 54.0741 209.584 54.9025V57.8606H210.016C210.844 57.8606 211.516 58.5322 211.516 59.3606V66.4254C211.516 66.7015 211.739 66.9254 212.016 66.9254H212.245C213.073 66.9254 213.745 67.5969 213.745 68.4254V75.2471H217.406C217.682 75.2471 217.906 75.4709 217.906 75.7471V99.8207C217.906 100.097 217.682 100.321 217.406 100.321C217.129 100.321 216.906 100.097 216.906 99.8207V76.2471H213.245H201.505C201.229 76.2471 201.005 76.0232 201.005 75.7471C201.005 75.4709 201.229 75.2471 201.505 75.2471H212.745V68.4254C212.745 68.1492 212.521 67.9254 212.245 67.9254H212.016C211.187 67.9254 210.516 67.2538 210.516 66.4254V59.3606C210.516 59.0845 210.292 58.8606 210.016 58.8606H209.084H195.412H194.183C193.907 58.8606 193.683 59.0845 193.683 59.3606V66.5337C193.683 66.8099 193.459 67.0337 193.183 67.0337C192.907 67.0337 192.683 66.8099 192.683 66.5337V59.3606C192.683 58.5322 193.355 57.8606 194.183 57.8606H194.912V54.9025C194.912 54.0741 195.584 53.4025 196.412 53.4025H196.844V43.8517H196.304H195.561C195.285 43.8517 195.061 43.6279 195.061 43.3517C195.061 43.0756 195.285 42.8517 195.561 42.8517H196.121L198.73 40.6548L201.748 34.9067V25.0736C201.748 24.7975 201.972 24.5736 202.248 24.5736ZM202.237 36.1263L199.955 40.4741H204.411L202.237 36.1263ZM205.022 41.4741H199.31L197.674 42.8517H206.486L205.022 41.4741ZM206.355 43.8517H197.844V53.4025H206.355V43.8517ZM208.584 57.8606V54.9025C208.584 54.6264 208.36 54.4025 208.084 54.4025H206.855H197.344H196.412C196.136 54.4025 195.912 54.6264 195.912 54.9025V57.8606H208.584ZM148.292 28.6563C148.909 27.6773 150.355 27.7364 150.891 28.7624L153.653 34.0557L153.694 34.1343L153.705 34.2223L154.54 40.6227H161.531H163.166C163.442 40.6227 163.666 40.8466 163.666 41.1227C163.666 41.3988 163.442 41.6227 163.166 41.6227H162.153L163.568 48.0528H175.203L175.897 43.4262L175.918 43.2819L176.014 43.1719L179.243 39.4649C179.856 38.7612 180.956 38.782 181.542 39.5085L184.508 43.1865L184.587 43.2853L184.61 43.4102L186.245 52.3263L186.253 52.371V52.4165V65.7907C186.253 66.0669 186.029 66.2907 185.753 66.2907C185.477 66.2907 185.253 66.0669 185.253 65.7907V52.9165H175.054C174.92 52.9165 174.811 53.0253 174.811 53.1595V64.3047C174.811 64.5808 174.587 64.8047 174.311 64.8047C174.035 64.8047 173.811 64.5808 173.811 64.3047V53.1595C173.811 52.629 174.143 52.1761 174.611 51.9977L175.053 49.0528H163.666V65.1963C163.666 65.4725 163.442 65.6963 163.166 65.6963C162.889 65.6963 162.666 65.4725 162.666 65.1963V48.6072L161.129 41.6227H154.663L155.358 47.5262C155.463 48.4179 154.766 49.2014 153.868 49.2014H144.571C143.649 49.2014 142.946 48.379 143.089 47.469L144.006 41.6227H138.002L136.323 48.7595V65.3449C136.323 65.6211 136.099 65.8449 135.823 65.8449C135.547 65.8449 135.323 65.6211 135.323 65.3449V49.2014H123.691V52.4165V64.3047C123.691 64.5808 123.468 64.8047 123.191 64.8047C122.915 64.8047 122.691 64.5808 122.691 64.3047V52.9165H112.546V66.0879C112.546 66.3641 112.322 66.5879 112.046 66.5879C111.77 66.5879 111.546 66.3641 111.546 66.0879V52.4165V52.3599L111.559 52.3046L113.639 43.2399L113.666 43.1226L113.744 43.0304L116.826 39.3553C117.433 38.6316 118.55 38.6423 119.143 39.3776L122.095 43.0379L122.16 43.1183L122.187 43.2179L123.572 48.2014H135.427L136.975 41.6227H135.823C135.547 41.6227 135.323 41.3988 135.323 41.1227C135.323 40.8466 135.547 40.6227 135.823 40.6227H137.606H144.142L144.836 34.2329L144.849 34.1181L144.91 34.0203L148.292 28.6563ZM122.691 48.7696L121.325 43.8517H114.525L112.674 51.9165H122.691V48.7696ZM115.199 42.8517H120.66L118.364 40.0054C118.167 39.7603 117.795 39.7567 117.592 39.998L115.199 42.8517ZM153.604 41.1811L152.77 34.787H145.782L145.087 41.1767L145.086 41.1885L145.084 41.2002L144.077 47.6239C144.029 47.9273 144.264 48.2014 144.571 48.2014H153.868C154.167 48.2014 154.399 47.9403 154.364 47.643L153.605 41.1874L153.604 41.1811ZM146.24 33.787H152.384L150.004 29.2249C149.826 28.8829 149.344 28.8633 149.138 29.1896L146.24 33.787ZM175.634 51.9165H185.153L183.702 44.0003H176.822L176.128 48.627L175.634 51.9165ZM177.49 43.0003H183.073L180.763 40.1362C180.568 39.8941 180.201 39.8871 179.997 40.1217L177.49 43.0003ZM8.84422 34.2235C8.62874 33.9266 8.17755 33.9551 8.00116 34.2767L4.11367 41.3657H14.0281L8.84422 34.2235ZM14.5088 42.3657H3.26922H3.229C2.95286 42.3657 2.72901 42.5896 2.72901 42.8657V45.2294H14.5088V42.3657ZM15.5088 45.2381V41.8657V41.7034L15.4135 41.572L9.65352 33.6361C9.00708 32.7454 7.65351 32.831 7.12435 33.7959L2.95998 41.3898C2.25993 41.5165 1.72901 42.1291 1.72901 42.8657V45.2294H1.59438C0.765949 45.2294 0.0943769 45.9009 0.0943769 46.7294V72.3292C0.0943769 72.6054 0.318234 72.8292 0.594377 72.8292C0.870519 72.8292 1.09438 72.6054 1.09438 72.3292V46.7294C1.09438 46.4532 1.31823 46.2294 1.59438 46.2294H2.22901H15.0088H15.3463C15.6224 46.2294 15.8462 46.4532 15.8462 46.7294V76.6387C15.8462 76.9149 16.0701 77.1387 16.3463 77.1387C16.6224 77.1387 16.8463 76.9149 16.8463 76.6387V46.7294C16.8463 45.9559 16.2608 45.3191 15.5088 45.2381ZM83.4604 41.2311C83.4604 40.4027 84.132 39.7311 84.9604 39.7311H94.8486C95.6771 39.7311 96.3486 40.4026 96.3486 41.2311V57.955C96.3486 58.2311 96.5725 58.455 96.8486 58.455H98.4151C98.6912 58.455 98.9151 58.2311 98.9151 57.955V47.663C98.9151 46.3678 100.446 45.6815 101.413 46.5433L106.249 50.8534C106.568 51.138 106.751 51.5454 106.751 51.9731V64.3047C106.751 64.5808 106.527 64.8047 106.251 64.8047C105.975 64.8047 105.751 64.5808 105.751 64.3047V51.9731C105.751 51.8305 105.69 51.6947 105.583 51.5999L100.748 47.2898C100.425 47.0025 99.9151 47.2313 99.9151 47.663V57.955C99.9151 58.7834 99.2435 59.455 98.4151 59.455H96.8486C96.0202 59.455 95.3486 58.7834 95.3486 57.955V41.2311C95.3486 40.9549 95.1248 40.7311 94.8486 40.7311H84.9604C84.6843 40.7311 84.4604 40.9549 84.4604 41.2311V50.7819C84.4604 51.058 84.2366 51.2819 83.9604 51.2819C83.6843 51.2819 83.4604 51.058 83.4604 50.7819V41.2311ZM110.56 14.1581C110.893 14.4502 111.144 14.8416 111.311 15.205C111.425 15.4515 111.321 15.7438 111.078 15.8634C110.834 15.983 110.539 15.8861 110.414 15.6452C110.175 15.1869 109.962 14.9477 109.794 14.8266C109.698 14.7607 109.606 14.7239 109.518 14.7114C109.364 14.6996 109.154 14.7721 108.875 15.0354C108.409 15.4743 107.968 16.2449 107.631 17.0113C107.527 17.2555 107.422 17.5229 107.315 17.8153L106.736 19.396L106.358 17.756C105.831 15.474 105.052 14.9164 104.531 14.8391C104.247 14.7968 103.933 14.8726 103.611 15.0482C103.29 15.2233 102.993 15.481 102.763 15.7437C102.581 15.9516 102.266 15.9726 102.058 15.7908C101.85 15.6089 101.829 15.293 102.011 15.0852C102.301 14.7536 102.687 14.4132 103.133 14.1703C103.577 13.9279 104.112 13.7659 104.678 13.85C105.6 13.9868 106.369 14.7185 106.92 16.153C107.195 15.5718 107.47 15.1106 107.744 14.7532C108.198 14.1619 108.691 13.8059 109.221 13.7241C109.366 13.7016 109.506 13.7011 109.638 13.7181C109.686 13.7234 109.733 13.7311 109.781 13.7415C110.009 13.7907 110.221 13.8934 110.417 14.0432C110.467 14.0798 110.515 14.1183 110.56 14.1581ZM135.177 21.0386C135.475 21.3794 135.698 21.8214 135.846 22.2267C135.939 22.4795 135.815 22.7604 135.565 22.8619C135.316 22.9634 135.031 22.8491 134.921 22.6033C134.543 21.7609 134.23 21.5132 134.072 21.4612C134.046 21.4526 134.014 21.4469 133.975 21.4498C133.858 21.4723 133.617 21.5913 133.284 22.091C132.938 22.6097 132.549 23.4591 132.139 24.7764L131.694 26.2059L131.191 24.796C130.756 23.5786 130.314 22.7928 129.903 22.3081C129.497 21.828 129.144 21.6676 128.873 21.636C128.599 21.6041 128.319 21.6939 128.042 21.8894C127.762 22.0864 127.514 22.3722 127.33 22.6652C127.182 22.8989 126.874 22.969 126.64 22.8219C126.406 22.6748 126.336 22.3661 126.483 22.1324C126.72 21.7567 127.054 21.3626 127.466 21.072C127.88 20.78 128.402 20.5744 128.989 20.6428C129.579 20.7115 130.146 21.047 130.666 21.6619C130.991 22.0454 131.306 22.5463 131.609 23.1829C131.675 23.0117 131.744 22.8411 131.818 22.6739C132.082 22.0747 132.409 21.4819 132.795 21.0639C133.086 20.7487 133.483 20.4629 133.95 20.4472C134.479 20.4146 134.895 20.7166 135.177 21.0386ZM106.14 29.1018C107.034 28.8551 107.897 29.0986 108.425 29.3919C108.661 29.5229 108.751 29.8175 108.627 30.0575C108.504 30.2975 108.212 30.3964 107.968 30.2808C107.009 29.8263 106.327 30.0145 105.834 30.3849C105.438 30.682 105.141 31.1165 104.952 31.5175C104.896 31.643 104.842 31.7786 104.791 31.9251L104.25 33.4794L103.835 31.887C103.676 31.2782 103.424 30.8697 103.14 30.5945C102.857 30.3191 102.519 30.1551 102.155 30.0709C101.411 29.8985 100.585 30.0689 100.053 30.2905C99.7982 30.3967 99.5054 30.2762 99.3992 30.0213C99.293 29.7664 99.4136 29.4736 99.6685 29.3674C100.325 29.0937 101.371 28.8628 102.381 29.0967C102.894 29.2156 103.404 29.4564 103.837 29.877C104.027 30.0618 104.199 30.2771 104.348 30.5247C104.84 29.7313 105.469 29.2869 106.14 29.1018Z" fill="white"/>
</svg>
