<svg width="48" height="48" viewBox="0 0 48 48" fill="none" xmlns="http://www.w3.org/2000/svg">
<path d="M44.6812 2.98276L12.363 29.8968M19.9768 37.5392L27.3536 44.8769C27.8066 45.3409 28.373 45.6787 28.9968 45.8568C29.6205 46.0348 30.28 46.0471 30.9099 45.8923C31.5433 45.7448 32.128 45.437 32.6079 44.9983C33.0878 44.5597 33.4466 44.005 33.6499 43.3877L45.7617 7.10516C46.0151 6.42561 46.0677 5.68761 45.9133 4.97902C45.759 4.27042 45.4041 3.62108 44.8909 3.10829C44.3778 2.5955 43.728 2.24087 43.0189 2.0866C42.3098 1.93234 41.5713 1.98494 40.8912 2.23816L4.58315 14.3448C3.94412 14.5624 3.37486 14.9466 2.93422 15.4577C2.49359 15.9689 2.19758 16.5883 2.07681 17.2521C1.95206 17.8562 1.97961 18.4818 2.15698 19.0726C2.33435 19.6635 2.65597 20.2009 3.09289 20.6367L12.363 29.9002L12.0581 41.6311L19.9768 37.5392Z" stroke="white" stroke-width="3" stroke-linecap="round" stroke-linejoin="round"/>
</svg>
