<svg width="46" height="43" viewBox="0 0 46 43" fill="none" xmlns="http://www.w3.org/2000/svg">
<path d="M23.0036 0.00115169C17.0984 -0.0588554 11.4109 2.22821 7.19121 6.35971C2.97149 10.4912 0.56477 16.1291 0.5 22.0343C0.522754 26.701 2.02399 31.2405 4.78809 35.0007C7.55219 38.761 11.4369 41.5484 15.8843 42.9626C17.0095 43.1672 17.4186 42.4921 17.4186 41.8988C17.4186 41.3056 17.4186 39.9963 17.4186 38.155C11.1585 39.4848 9.82878 35.2091 9.82878 35.2091C9.41205 33.8669 8.52609 32.7195 7.33292 31.9768C5.28714 30.6266 7.49659 30.647 7.49659 30.647C8.20371 30.7415 8.88026 30.995 9.47549 31.3882C10.0707 31.7815 10.5692 32.3045 10.9335 32.9178C11.5684 34.0187 12.6101 34.8263 13.8345 35.1669C15.0588 35.5074 16.3679 35.3536 17.48 34.7386C17.5944 33.6183 18.1017 32.5746 18.9121 31.7927C13.9204 31.2403 8.68314 29.3582 8.68314 20.9091C8.6385 18.7051 9.45285 16.5702 10.954 14.9558C10.2703 13.0636 10.351 10.9795 11.179 9.14581C11.179 9.14581 13.0816 8.55253 17.3164 11.3962C21.0026 10.4139 24.8819 10.4139 28.5682 11.3962C32.8643 8.55253 34.7055 9.14581 34.7055 9.14581C35.5335 10.9795 35.6142 13.0636 34.9306 14.9558C36.4665 16.5406 37.3251 18.6612 37.3241 20.8682C37.3241 29.3377 32.046 31.1994 27.0952 31.7517C27.6373 32.2781 28.0561 32.9179 28.3214 33.6254C28.5866 34.3329 28.6919 35.0903 28.6295 35.8433V41.8784C28.6295 41.8784 29.0387 43.1672 30.1639 42.9422C34.5986 41.5191 38.4703 38.7311 41.2258 34.9762C43.9814 31.2213 45.4799 26.6917 45.5073 22.0343C45.4425 16.1291 43.0358 10.4912 38.8161 6.35971C34.5963 2.22821 28.9089 -0.0588554 23.0036 0.00115169Z" fill="white"/>
</svg>
