<svg width="50" height="50" viewBox="0 0 50 50" fill="none" xmlns="http://www.w3.org/2000/svg">
<g clip-path="url(#clip0_806_17503)">
<path d="M1.5938 27.8082C1.594 43.7677 33.3749 43.8125 46.862 30.9542L38.4176 22.8184L48.1473 18.0944C30.6257 -4.51288 1.59291 11.2676 1.5938 27.8082Z" fill="#005454"/>
<path d="M14.568 29V17.8H16.296V27.336H21.544V29H14.568ZM28.8416 29.16C28.031 29.16 27.2736 29.016 26.5696 28.728C25.8656 28.4293 25.247 28.0187 24.7136 27.496C24.1803 26.9733 23.7643 26.3653 23.4656 25.672C23.1776 24.968 23.0336 24.2107 23.0336 23.4C23.0336 22.6 23.1776 21.8533 23.4656 21.16C23.7643 20.4667 24.175 19.864 24.6976 19.352C25.231 18.8293 25.8496 18.424 26.5536 18.136C27.2576 17.848 28.015 17.704 28.8256 17.704C29.391 17.704 29.9403 17.784 30.4736 17.944C31.0176 18.104 31.5083 18.328 31.9456 18.616C32.383 18.904 32.7403 19.2347 33.0176 19.608L31.8976 20.776C31.4176 20.3173 30.9163 19.9707 30.3936 19.736C29.8816 19.5013 29.359 19.384 28.8256 19.384C28.2496 19.384 27.7163 19.4853 27.2256 19.688C26.7456 19.8907 26.319 20.1733 25.9456 20.536C25.583 20.8987 25.3003 21.3253 25.0976 21.816C24.895 22.296 24.7936 22.824 24.7936 23.4C24.7936 23.9547 24.9003 24.4827 25.1136 24.984C25.327 25.4747 25.6203 25.9067 25.9936 26.28C26.3776 26.6533 26.815 26.9467 27.3056 27.16C27.807 27.3733 28.335 27.48 28.8896 27.48C29.3056 27.48 29.7003 27.4213 30.0736 27.304C30.447 27.176 30.7776 27 31.0656 26.776C31.3536 26.552 31.5776 26.296 31.7376 26.008C31.8976 25.7093 31.9776 25.3947 31.9776 25.064V24.744L32.2176 24.968H28.7936V23.256H33.7536C33.775 23.3733 33.791 23.4907 33.8016 23.608C33.8123 23.7147 33.8176 23.8213 33.8176 23.928C33.8283 24.024 33.8336 24.12 33.8336 24.216C33.8336 24.952 33.7056 25.624 33.4496 26.232C33.1936 26.8293 32.8363 27.3467 32.3776 27.784C31.9296 28.2213 31.4016 28.5627 30.7936 28.808C30.1963 29.0427 29.5456 29.16 28.8416 29.16Z" fill="white"/>
</g>
<defs>
<clipPath id="clip0_806_17503">
<rect width="50" height="50" fill="white"/>
</clipPath>
</defs>
</svg>
