<svg width="38" height="38" viewBox="0 0 38 38" fill="none" xmlns="http://www.w3.org/2000/svg">
<path d="M31.871 0H6.12903C2.74406 0 0 2.74406 0 6.12903V31.871C0 35.256 2.74406 38 6.12903 38H31.871C35.256 38 38 35.256 38 31.871V6.12903C38 2.74406 35.256 0 31.871 0Z" fill="#FFD02F"/>
<path fill-rule="evenodd" clip-rule="evenodd" d="M25.7418 6.12915H22.0644L25.1289 11.6453L18.387 6.12915H14.7096L18.0805 12.8711L11.0322 6.12915H7.35474L11.0322 14.7098L7.35474 31.8711H11.0322L18.0805 13.484L14.7096 31.8711H18.387L25.1289 12.2582L22.0644 31.8711H25.7418L32.4838 10.4195L25.7418 6.12915Z" fill="#050038"/>
</svg>
