<svg width="38" height="38" viewBox="0 0 38 38" fill="none" xmlns="http://www.w3.org/2000/svg">
<g clip-path="url(#clip0_106_743)">
<path d="M6.72917 0H31.2708C34.9917 0 38 3.00833 38 6.72917V30.3208C38 34.0417 34.9917 37.05 31.2708 37.05H6.72917C3.00833 37.05 0 34.0417 0 30.3208V6.72917C0 3.00833 3.00833 0 6.72917 0Z" fill="#001E36"/>
<path d="M8.55005 25.9826V9.69007C8.55005 9.57923 8.59755 9.5159 8.70838 9.5159C8.97755 9.5159 9.23088 9.5159 9.59505 9.50007C9.97505 9.48423 10.3709 9.48423 10.7984 9.4684C11.2259 9.45256 11.685 9.45256 12.1759 9.43673C12.6667 9.4209 13.1417 9.4209 13.6167 9.4209C14.915 9.4209 15.9917 9.57923 16.8784 9.91173C17.67 10.1809 18.3984 10.6242 19 11.2101C19.5067 11.7167 19.9025 12.3342 20.1559 13.0151C20.3934 13.6801 20.52 14.3609 20.52 15.0734C20.52 16.4351 20.2034 17.5592 19.57 18.4459C18.9367 19.3326 18.05 19.9976 17.0209 20.3776C15.9442 20.7734 14.7567 20.9159 13.4584 20.9159C13.0784 20.9159 12.825 20.9159 12.6667 20.9001C12.5084 20.8842 12.2867 20.8842 11.9859 20.8842V25.9667C12.0017 26.0776 11.9225 26.1726 11.8117 26.1884C11.7959 26.1884 11.78 26.1884 11.7484 26.1884H8.74005C8.61338 26.1884 8.55005 26.1251 8.55005 25.9826ZM12.0017 12.5717V17.8917C12.2234 17.9076 12.4292 17.9234 12.6192 17.9234H13.4584C14.0759 17.9234 14.6934 17.8284 15.2792 17.6384C15.7859 17.4959 16.2292 17.1951 16.5775 16.7992C16.91 16.4034 17.0684 15.8651 17.0684 15.1684C17.0842 14.6776 16.9575 14.1867 16.7042 13.7592C16.435 13.3476 16.055 13.0309 15.5959 12.8567C15.01 12.6192 14.3767 12.5242 13.7275 12.5401C13.3159 12.5401 12.9517 12.5401 12.6509 12.5559C12.3342 12.5401 12.1125 12.5559 12.0017 12.5717Z" fill="#31A8FF"/>
<path d="M30.4 16.926C29.925 16.6727 29.4183 16.4985 28.88 16.3877C28.2942 16.261 27.7083 16.1818 27.1067 16.1818C26.79 16.166 26.4575 16.2135 26.1567 16.2927C25.9508 16.3402 25.7767 16.451 25.6658 16.6093C25.5867 16.736 25.5392 16.8943 25.5392 17.0368C25.5392 17.1793 25.6025 17.3218 25.6975 17.4485C25.84 17.6227 26.03 17.7652 26.2358 17.876C26.6 18.066 26.98 18.2402 27.36 18.3985C28.215 18.6835 29.0383 19.0793 29.7983 19.5543C30.3208 19.8868 30.7483 20.3302 31.0492 20.8685C31.3025 21.3752 31.4292 21.9293 31.4133 22.4993C31.4292 23.2435 31.2075 23.9877 30.7958 24.6052C30.3525 25.2385 29.735 25.7293 29.0225 26.0143C28.2467 26.3468 27.2967 26.521 26.1567 26.521C25.4283 26.521 24.7158 26.4577 24.0033 26.3152C23.4492 26.2202 22.895 26.046 22.3883 25.8085C22.2775 25.7452 22.1983 25.6343 22.2142 25.5077V22.7527C22.2142 22.7052 22.23 22.6418 22.2775 22.6102C22.325 22.5785 22.3725 22.5943 22.42 22.626C23.0375 22.9902 23.6867 23.2435 24.3833 23.4018C24.985 23.5602 25.6183 23.6393 26.2517 23.6393C26.8533 23.6393 27.2808 23.5602 27.5658 23.4177C27.8192 23.3068 27.9933 23.0377 27.9933 22.7527C27.9933 22.531 27.8667 22.3252 27.6133 22.1193C27.36 21.9135 26.8375 21.676 26.0617 21.3752C25.2542 21.0902 24.51 20.7102 23.8133 20.2352C23.3225 19.8868 22.9108 19.4277 22.61 18.8893C22.3567 18.3827 22.23 17.8285 22.2458 17.2743C22.2458 16.5935 22.4358 15.9443 22.7842 15.3585C23.18 14.7252 23.7658 14.2185 24.4467 13.9018C25.1908 13.5218 26.125 13.3477 27.2492 13.3477C27.8983 13.3477 28.5633 13.3952 29.2125 13.4902C29.6875 13.5535 30.1467 13.6802 30.5742 13.8543C30.6375 13.8702 30.7008 13.9335 30.7325 13.9968C30.7483 14.0602 30.7642 14.1235 30.7642 14.1868V16.7677C30.7642 16.831 30.7325 16.8943 30.685 16.926C30.5425 16.9577 30.4633 16.9577 30.4 16.926Z" fill="#31A8FF"/>
</g>
<defs>
<clipPath id="clip0_106_743">
<rect width="38" height="37.05" fill="white"/>
</clipPath>
</defs>
</svg>
