<svg width="38" height="38" viewBox="0 0 38 38" fill="none" xmlns="http://www.w3.org/2000/svg">
<g clip-path="url(#clip0_502_534)">
<path d="M0 13.7524C0 8.9386 0 6.5317 0.936825 4.69308C1.76088 3.07578 3.07578 1.76088 4.69308 0.936825C6.5317 0 8.9386 0 13.7524 0H24.2476C29.0614 0 31.4683 0 33.3069 0.936825C34.9242 1.76088 36.2391 3.07578 37.0632 4.69308C38 6.5317 38 8.9386 38 13.7524V24.2476C38 29.0614 38 31.4683 37.0632 33.3069C36.2391 34.9242 34.9242 36.2391 33.3069 37.0632C31.4683 38 29.0614 38 24.2476 38H13.7524C8.9386 38 6.5317 38 4.69308 37.0632C3.07578 36.2391 1.76088 34.9242 0.936825 33.3069C0 31.4683 0 29.0614 0 24.2476V13.7524Z" fill="#242424"/>
<path d="M10.6762 19.5428C5.3834 23.4384 4.34288 29.1333 4.34288 33.8833C4.58415 32.4659 5.69098 29.1424 8.18812 27.1881C11.8977 24.285 18.6833 25.2414 26.1024 20.3119C33.5215 15.3824 34.2453 8.95714 33.2953 4.02618C32.6352 8.78417 30.3827 10.8578 27.2786 12.7119C20.5382 16.7381 16.331 15.3809 10.6762 19.5428Z" fill="url(#paint0_linear_502_534)"/>
<path d="M10.6762 19.5428C5.3834 23.4384 4.34288 29.1333 4.34288 33.8833C4.58415 32.4659 5.69098 29.1424 8.18812 27.1881C11.8977 24.285 18.6833 25.2414 26.1024 20.3119C33.5215 15.3824 34.2453 8.95714 33.2953 4.02618C32.6352 8.78417 30.3827 10.8578 27.2786 12.7119C20.5382 16.7381 16.331 15.3809 10.6762 19.5428Z" fill="url(#paint1_linear_502_534)"/>
<path d="M4.40616 31.9363C4.69659 27.6443 6.0902 22.9181 10.6762 19.5429C13.6241 17.3732 16.1787 16.7034 18.9038 15.989C20.4941 15.572 22.1425 15.1398 23.9612 14.3854C23.2976 15.0191 20.1449 16.4983 17.7667 17.4867C15.3948 18.4726 12.8941 19.5119 10.8119 20.9C6.63438 23.685 4.93575 28.5306 4.40616 31.9363Z" fill="url(#paint2_linear_502_534)"/>
<path d="M4.40616 31.9363C4.69659 27.6443 6.0902 22.9181 10.6762 19.5429C13.6241 17.3732 16.1787 16.7034 18.9038 15.989C20.4941 15.572 22.1425 15.1398 23.9612 14.3854C23.2976 15.0191 20.1449 16.4983 17.7667 17.4867C15.3948 18.4726 12.8941 19.5119 10.8119 20.9C6.63438 23.685 4.93575 28.5306 4.40616 31.9363Z" fill="url(#paint3_linear_502_534)"/>
<path d="M30.1527 16.789C29.6324 17.2986 29.0525 17.7547 28.4096 18.1405C25.5144 19.8776 22.437 20.4378 19.4425 20.9829C17.0564 21.4173 14.7229 21.8421 12.5763 22.8452C7.73611 25.107 4.75047 29.8113 4.34302 33.8825C4.34299 33.8827 4.34296 33.8828 4.34293 33.883C4.34291 33.8823 4.3429 33.8816 4.34288 33.8808C4.3429 33.5701 4.34738 33.2552 4.35722 32.9372C4.38188 32.4325 4.43405 31.8734 4.52038 31.2771C5.15938 27.9289 6.89729 23.5097 10.812 20.9C12.4692 19.7952 14.3915 18.9113 16.3029 18.0995C17.984 17.5476 19.499 17.2041 20.9425 16.8769C23.2147 16.3617 25.3096 15.8868 27.5953 14.7024C32.3916 12.217 33.6482 7.10978 33.3104 4.10553C34.0275 7.91215 33.7376 12.5941 30.1527 16.789Z" fill="url(#paint4_linear_502_534)"/>
<path d="M30.1525 16.7892C29.6324 17.2987 29.0524 17.7548 28.4096 18.1405C25.5144 19.8777 22.437 20.4379 19.4426 20.983C17.0564 21.4174 14.7229 21.8422 12.5763 22.8453C9.79269 24.146 7.62248 26.2546 6.20328 28.586C7.4555 26.8265 9.36315 24.8608 11.7167 24.1119C14.0133 23.3812 16.204 23.3057 18.4798 23.2272C19.1321 23.2048 19.7914 23.182 20.4622 23.1436C22.27 22.4855 24.1646 21.5995 26.1024 20.3119C27.7727 19.2021 29.1037 18.0165 30.1525 16.7892Z" fill="url(#paint5_linear_502_534)"/>
<path d="M30.1525 16.7892C29.6324 17.2987 29.0524 17.7548 28.4096 18.1405C25.5144 19.8777 22.437 20.4379 19.4426 20.983C17.0564 21.4174 14.7229 21.8422 12.5763 22.8453C9.79269 24.146 7.62248 26.2546 6.20328 28.586C7.4555 26.8265 9.36315 24.8608 11.7167 24.1119C14.0133 23.3812 16.204 23.3057 18.4798 23.2272C19.1321 23.2048 19.7914 23.182 20.4622 23.1436C22.27 22.4855 24.1646 21.5995 26.1024 20.3119C27.7727 19.2021 29.1037 18.0165 30.1525 16.7892Z" fill="url(#paint6_linear_502_534)"/>
<path d="M33.3103 4.10554C33.3053 4.07904 33.3003 4.05259 33.2952 4.02618C32.6352 8.78417 30.3826 10.8578 27.2786 12.7119C26.1027 13.4143 25.0039 13.9528 23.9611 14.3854C23.2974 15.0191 20.1448 16.4983 17.7667 17.4867L17.7663 17.4869C17.2823 17.688 16.793 17.8914 16.3029 18.0995C17.984 17.5476 19.499 17.2041 20.9424 16.8769C23.2147 16.3617 25.3095 15.8868 27.5953 14.7024C32.3915 12.217 33.6481 7.10979 33.3103 4.10554Z" fill="url(#paint7_linear_502_534)"/>
<path d="M33.3103 4.10554C33.3053 4.07904 33.3003 4.05259 33.2952 4.02618C32.6352 8.78417 30.3826 10.8578 27.2786 12.7119C26.1027 13.4143 25.0039 13.9528 23.9611 14.3854C23.2974 15.0191 20.1448 16.4983 17.7667 17.4867L17.7663 17.4869C17.2823 17.688 16.793 17.8914 16.3029 18.0995C17.984 17.5476 19.499 17.2041 20.9424 16.8769C23.2147 16.3617 25.3095 15.8868 27.5953 14.7024C32.3915 12.217 33.6481 7.10979 33.3103 4.10554Z" fill="url(#paint8_linear_502_534)"/>
</g>
<defs>
<linearGradient id="paint0_linear_502_534" x1="20.9" y1="21.9857" x2="5.24764" y2="33.2048" gradientUnits="userSpaceOnUse">
<stop stop-color="#FE5004"/>
<stop offset="0.602538" stop-color="#FFB915"/>
<stop offset="1" stop-color="#FFFC41"/>
</linearGradient>
<linearGradient id="paint1_linear_502_534" x1="14.7024" y1="22.9357" x2="14.7929" y2="24.5643" gradientUnits="userSpaceOnUse">
<stop stop-color="#FD3E00"/>
<stop offset="1" stop-color="#FD4400" stop-opacity="0"/>
</linearGradient>
<linearGradient id="paint2_linear_502_534" x1="23.9762" y1="13.5715" x2="1.9" y2="33.2048" gradientUnits="userSpaceOnUse">
<stop stop-color="#005FC6"/>
<stop offset="0.279756" stop-color="#23A4DF"/>
<stop offset="0.465158" stop-color="#3AC2B7"/>
<stop offset="0.640642" stop-color="#60EC7A"/>
<stop offset="0.818668" stop-color="#CFFDBD"/>
<stop offset="1" stop-color="#D0FCB6"/>
</linearGradient>
<linearGradient id="paint3_linear_502_534" x1="19.4976" y1="17.3262" x2="17.5976" y2="15.6072" gradientUnits="userSpaceOnUse">
<stop stop-color="#0061CB"/>
<stop offset="1" stop-color="#067EEA" stop-opacity="0"/>
</linearGradient>
<linearGradient id="paint4_linear_502_534" x1="33.3857" y1="4.07141" x2="4.34288" y2="33.8381" gradientUnits="userSpaceOnUse">
<stop stop-color="#8E55F1"/>
<stop offset="0.140795" stop-color="#8B48DF"/>
<stop offset="0.274905" stop-color="#E04DD9"/>
<stop offset="0.492309" stop-color="#F496C8"/>
<stop offset="0.633104" stop-color="#FAD2BA"/>
<stop offset="0.856964" stop-color="#FEF7E5"/>
<stop offset="1" stop-color="#FFF5BF"/>
</linearGradient>
<linearGradient id="paint5_linear_502_534" x1="30.5357" y1="16.5119" x2="6.83095" y2="27.2334" gradientUnits="userSpaceOnUse">
<stop stop-color="#F41A73"/>
<stop offset="0.399909" stop-color="#FC50A3"/>
<stop offset="0.584511" stop-color="#FE9485"/>
<stop offset="0.703104" stop-color="#FFAF88"/>
<stop offset="1" stop-color="#FFC385"/>
</linearGradient>
<linearGradient id="paint6_linear_502_534" x1="21.9857" y1="19.8143" x2="22.031" y2="21.9858" gradientUnits="userSpaceOnUse">
<stop stop-color="#9B0008"/>
<stop offset="1" stop-color="#EA115A" stop-opacity="0"/>
</linearGradient>
<linearGradient id="paint7_linear_502_534" x1="33.3857" y1="6.51428" x2="11.9881" y2="20.4928" gradientUnits="userSpaceOnUse">
<stop stop-color="#231283"/>
<stop offset="0.362865" stop-color="#7053C6"/>
<stop offset="0.466353" stop-color="#7272DB"/>
<stop offset="0.634311" stop-color="#399EE9"/>
<stop offset="1" stop-color="#00CFFF"/>
</linearGradient>
<linearGradient id="paint8_linear_502_534" x1="28.0476" y1="13.5714" x2="28.9976" y2="14.7929" gradientUnits="userSpaceOnUse">
<stop stop-color="#3F259D" stop-opacity="0"/>
<stop offset="1" stop-color="#412DAA"/>
</linearGradient>
<clipPath id="clip0_502_534">
<rect width="38" height="38" fill="white"/>
</clipPath>
</defs>
</svg>
